<svg id="Capa_1" data-name="Capa 1" xmlns="http://www.w3.org/2000/svg" viewBox="0 0 278 271"><defs><style>.cls-1{fill:#161c34;}</style></defs><path class="cls-1" d="M215.12,73.87c0-3.89,1.19-32,1.19-44.87-23.77.65-115.17,0-115.17,0S81.53,35.26,74.9,35.64c-1.07,22.72-2,34.22-2,42.32S49.51,212,50.09,219.58s19.32,18.14,25.75,21.65,148.06-5.85,151.57-10.83S215.12,77.76,215.12,73.87ZM153,202.61a49.45,49.45,0,1,1,49.45-49.45A49.44,49.44,0,0,1,153,202.61Z"/><path class="cls-1" d="M174.9,157a9.13,9.13,0,0,0-.88,1.91l-13.15-8.06-7-4.29-13.16-8.07a10.11,10.11,0,0,0,1.31-1.65,9.41,9.41,0,1,0-16.86-1.79,9.39,9.39,0,1,0,9.24,14.21c.13-.22.21-.46.33-.69l13,8,7,4.29,13,8c-.15.21-.32.39-.46.61a9.41,9.41,0,1,0,16.85,1.79A9.39,9.39,0,1,0,174.9,157Z"/></svg>