<svg id="Capa_1" data-name="Capa 1" xmlns="http://www.w3.org/2000/svg" viewBox="0 0 278 271"><defs><style>.cls-1{fill:#716357}.cls-2{fill:#fff}.cls-3{fill:#d9d9d9}</style></defs><path class="cls-1" d="M66.59 125.6l63.48 22.32 84.08-26.04-77.81-14.85-69.75 18.57z"/><path class="cls-2" d="M130.05 148.9l-66.62-23.43 72.88-19.39h.21L218 121.66zm-60.3-23.18l60.34 21.22 80.22-24.85L136.38 108z"/><path class="cls-3" d="M136.34 107l26.55-12.77a11.28 11.28 0 017.19-.88l57 11.92a3.69 3.69 0 011.38 6.62l-14.1 10z"/><path class="cls-2" d="M214.59 122.87l-.39-.08-80.81-15.37 29.1-14a12.28 12.28 0 017.78-1l57 11.92a4.61 4.61 0 011.72 8.29zm-75.29-16.22l74.86 14.24 13.78-9.73a2.76 2.76 0 00-1-5l-57-11.92a10.43 10.43 0 00-6.6.81z"/><path class="cls-3" d="M136.34 107.03v39.52l16.77-5.77 61.27-18.9-78.04-14.85z"/><path class="cls-2" d="M135.41 147.86v-42l82.82 15.75-64.83 20zm1.87-39.7v37.09l15.56-5.36 57.68-17.8z"/><path class="cls-3" d="M66.59 125.6l-13.26-20.89a6.86 6.86 0 014.55-10.42l56.7-10.47a7.8 7.8 0 017.81 3.2l14 20z"/><path class="cls-2" d="M66.17 126.67l-13.62-21.46a7.79 7.79 0 015.16-11.84l56.7-10.47a8.74 8.74 0 018.74 3.59l14.72 21.1zm49.82-42a7.42 7.42 0 00-1.24.11L58.05 95.2a5.93 5.93 0 00-3.93 9L67 124.52l67.81-18-13.2-18.92a6.86 6.86 0 00-5.61-2.98z"/><path class="cls-3" d="M130.07 147.92l-.53 92.64-62.95-25.11V125.6l63.48 22.32z"/><path class="cls-2" d="M130.47 241.93l-64.81-25.85v-91.8l65.35 23zm-62.95-27.11l61.1 24.37.52-90.61-61.62-21.67z"/><path class="cls-3" d="M130.07 147.92l-16.19 25.34a7.9 7.9 0 01-9.72 3L51 154a6.71 6.71 0 01-2.12-11l17.71-17.4z"/><path class="cls-2" d="M107.23 177.84a8.83 8.83 0 01-3.43-.69l-53.14-22.29a7.65 7.65 0 01-2.41-12.5l18.1-17.84 65.14 22.91-16.83 26.33a8.82 8.82 0 01-7.43 4.08zm-40.4-51.17l-17.27 17a5.78 5.78 0 001.82 9.45l53.14 22.29a6.94 6.94 0 008.57-2.67l15.56-24.35z"/><path d="M189.9 134c-.6-.37-1.18-.77-1.75-1.19-4.17-3.1-43.89-45.37-48.42-47-.61-.22-1.2-.42-1.82-.61-1-1.91-2-4-2.9-6.08-2.77-6.34-5.26-13.67-7.85-21.6 2.93-3.06 5.37-6.47 3.08-10l-5.36-6a12.2 12.2 0 00-5.3-6.56 48.08 48.08 0 00-9.14-4c-1.22-.4-2.46-.74-3.66-1a28.14 28.14 0 00-8.27-.86c-4.85.31-5.51 5.2-10.51 5.02-4.31-.16-8.11-.52-13.63-.79l-2.87-.13a2.36 2.36 0 00-2.72 2.67l.3 2.11.07.55a16.26 16.26 0 00.35 1.68 17.79 17.79 0 00.69 2.06 16.21 16.21 0 002.61 4.4 8.18 8.18 0 004.07 2.72l12.63 1.27a6.16 6.16 0 014.81 4v.06a1.77 1.77 0 010 1 2.84 2.84 0 01-1.15 1.7 3.84 3.84 0 01-1 .51 3.59 3.59 0 00-1.91-.44 11.34 11.34 0 00-2.15.35c-1.87.4-3.76.71-5.66 1-.77.11-1.54.22-2.3.36l-.14-.47v.49a12.75 12.75 0 00-1.39.32 7.15 7.15 0 00-3.38 2.05A9.94 9.94 0 0074 63.44l-1.21 2.19a1.38 1.38 0 00-.21.54 1.43 1.43 0 00.26.79c.17.27.36.54.56.81s.74.79 1.2.65a1.16 1.16 0 00.55-.5 6.19 6.19 0 00.71-2.46 8.93 8.93 0 01.53-2.46 3.45 3.45 0 01.51-.81 2.09 2.09 0 00.22 2.49l.53.56c.24.26.52.54.83.82 1.45 1.27 3.57 2.56 5.16 2.38a33.58 33.58 0 0113.8-2.64 4.83 4.83 0 014.78 3.74l1 14.58.37 5.45.11 1.68.21 2.83.15 2.21.28 3.94c0 2.35-.12 4.33-.25 6.06-.11 1.41-.24 2.64-.36 3.75l-.1.07c-5.58 3.22-11.26 6.3-17 9.31a66.85 66.85 0 01-6.63 2.71 12.1 12.1 0 00-8 10.2c-.41 3-.59 6-.72 9-.17 3.74-1.92 6.78-3.85 9.82a15.4 15.4 0 00-1.71 4.24c-.51 1.85.82 2.81 2.51 3.31a5.86 5.86 0 006.35-2.26 25.72 25.72 0 013.42-3.87c1.35-1.26 1.95-2.64 1.09-4.35a6.63 6.63 0 01-.35-5.72c.48-1.23.44-2.67.93-3.9.3-.74 1.09-1.69 1.81-1.77 1.8-.2 2-1.31 2-2.54.11-2.86.37-3.24 3.36-3.95 4.71-1.13 9.45-2.14 14.13-3.34 4.13-1.06 8.28-2.12 12.38-3.26l3.25 2.82c-5.52 3.13-11.13 6.12-16.79 9a65 65 0 01-6.55 2.66 11.75 11.75 0 00-7.87 10c-.39 2.93-.56 5.91-.68 8.89-.14 3.66-1.86 6.64-3.76 9.61a15.24 15.24 0 00-1.67 4.16c-.5 1.81.82 2.76 2.5 3.25a5.8 5.8 0 006.29-2.13 25.84 25.84 0 013.33-3.84c1.33-1.22 1.92-2.57 1.06-4.26a6.45 6.45 0 01-.37-5.62c.47-1.2.42-2.62.91-3.81.29-.73 1.06-1.66 1.78-1.73 1.78-.19 2-1.28 2-2.49.11-2.8.36-3.18 3.32-3.86 4.66-1.08 9.35-2.06 14-3.21s9.1-2.25 13.6-3.5c3.9 5.9 8.47 15.34 15 16 3 .28 6.72 10.16 11.92 10l34.68-23.79c-1.9-.89 2.34-6.75.6-7.89z" fill="#161c34"/><path class="cls-1" d="M214.15 202.7l-84.61 37.86.53-92.64 84.31-26.04-.23 80.82z"/><path class="cls-2" d="M128.6 242l.54-94.77 86.17-26.61-.23 82.68zm2.4-93.39l-.52 90.51 82.74-37 .22-79z"/><path class="cls-3" d="M130.07 147.92l16.65 28.52a6.52 6.52 0 008 2.8l72-27.64a6.8 6.8 0 002.89-10.6l-15.23-19.14z"/><path class="cls-2" d="M152.33 180.61a7.41 7.41 0 01-6.41-3.7l-17.24-29.53 86-26.58 15.63 19.64a7.73 7.73 0 01-3.28 12L155 180.11a7.43 7.43 0 01-2.67.5zm-20.86-32.15L147.53 176a5.57 5.57 0 006.82 2.4l72.05-27.64a5.87 5.87 0 002.48-9.13L214.05 123z"/></svg>