<svg id="Capa_1" data-name="Capa 1" xmlns="http://www.w3.org/2000/svg" viewBox="0 0 278 271"><defs><style>.cls-1{fill:#161c34;}</style></defs><path class="cls-1" d="M142.34,101.27c11.45,7.3,29.94-1.22,41.3-19s11.3-38.17-.14-45.47-29.93,1.22-41.3,19S130.91,94,142.34,101.27Z"/><path class="cls-1" d="M85.89,98.27C98,102.71,113.45,91,120.37,72.16S123.09,34.4,111,29.94,83.42,37.19,76.49,56,73.78,93.81,85.89,98.27Z"/><path class="cls-1" d="M155.58,122.42C125.3,88,18.84,114.16,33.8,151.59c12.2,30.5,30.36,15,46.41,35,.35.44.67.88,1,1.31s.79.75,1.18,1.15c17.79,18.45.16,34.51,28.87,50.46C146.49,259.11,185.87,156.8,155.58,122.42Z"/><path class="cls-1" d="M174.88,138.21c5.8,12.27,26,14.91,45.08,5.89s29.9-26.29,24.11-38.55-26-14.91-45.09-5.9S169.09,125.94,174.88,138.21Z"/><path class="cls-1" d="M241.67,178.35c-2.88-12.58-21.09-19.15-40.69-14.66S167.86,182,170.73,194.6s21.11,19.15,40.7,14.65S244.55,190.93,241.67,178.35Z"/></svg>